<mxfile host="app.diagrams.net" modified="2020-10-15T06:45:49.261Z" agent="5.0 (Macintosh; Intel Mac OS X 10_15_6) AppleWebKit/537.36 (KHTML, like Gecko) Chrome/85.0.4183.121 Safari/537.36" etag="tSaOkoFJ-SsYNOyA494B" version="13.8.0" type="github">
  <diagram id="pqXCdQUKRn2x1dWqDvbr" name="intro topologies">
    <mxGraphModel dx="2052" dy="1100" grid="1" gridSize="1" guides="1" tooltips="1" connect="1" arrows="1" fold="1" page="1" pageScale="1" pageWidth="827" pageHeight="1169" math="0" shadow="0">
      <root>
        <mxCell id="0" />
        <mxCell id="1" parent="0" />
        <mxCell id="Shn82EJDHSnE-vzaOmSC-1" value="" style="rounded=0;whiteSpace=wrap;html=1;fontFamily=Helvetica;fontSize=8;strokeColor=none;fillColor=#DDE9F5;" vertex="1" parent="1">
          <mxGeometry x="133" y="266.5" width="323" height="41" as="geometry" />
        </mxCell>
        <mxCell id="Shn82EJDHSnE-vzaOmSC-2" value="" style="rounded=0;whiteSpace=wrap;html=1;fontFamily=Helvetica;fontSize=8;strokeColor=none;fillColor=#DDE9F5;" vertex="1" parent="1">
          <mxGeometry x="133" y="320" width="323" height="42" as="geometry" />
        </mxCell>
        <mxCell id="Shn82EJDHSnE-vzaOmSC-3" style="rounded=0;orthogonalLoop=1;jettySize=auto;html=1;exitX=0.5;exitY=0;exitDx=0;exitDy=0;entryX=0.5;entryY=1;entryDx=0;entryDy=0;startSize=6;endArrow=none;endFill=0;endSize=2;fontFamily=Helvetica;fontSize=8;strokeColor=#98A2AE;" edge="1" parent="1">
          <mxGeometry relative="1" as="geometry">
            <mxPoint x="181" y="326" as="sourcePoint" />
            <mxPoint x="203" y="302" as="targetPoint" />
          </mxGeometry>
        </mxCell>
        <mxCell id="Shn82EJDHSnE-vzaOmSC-4" style="rounded=0;orthogonalLoop=1;jettySize=auto;html=1;exitX=0.5;exitY=0;exitDx=0;exitDy=0;entryX=0.5;entryY=1;entryDx=0;entryDy=0;startSize=6;endArrow=none;endFill=0;endSize=2;fontFamily=Helvetica;fontSize=8;strokeColor=#98A2AE;" edge="1" parent="1">
          <mxGeometry relative="1" as="geometry">
            <mxPoint x="181" y="326" as="sourcePoint" />
            <mxPoint x="261" y="302" as="targetPoint" />
          </mxGeometry>
        </mxCell>
        <mxCell id="Shn82EJDHSnE-vzaOmSC-5" style="rounded=0;orthogonalLoop=1;jettySize=auto;html=1;exitX=0.5;exitY=0;exitDx=0;exitDy=0;entryX=0.5;entryY=1;entryDx=0;entryDy=0;startSize=6;endArrow=none;endFill=0;endSize=2;fontFamily=Helvetica;fontSize=8;strokeColor=#98A2AE;" edge="1" parent="1">
          <mxGeometry relative="1" as="geometry">
            <mxPoint x="283" y="326" as="sourcePoint" />
            <mxPoint x="203" y="302" as="targetPoint" />
          </mxGeometry>
        </mxCell>
        <mxCell id="Shn82EJDHSnE-vzaOmSC-6" style="rounded=0;orthogonalLoop=1;jettySize=auto;html=1;exitX=0.5;exitY=0;exitDx=0;exitDy=0;entryX=0.5;entryY=1;entryDx=0;entryDy=0;startSize=6;endArrow=none;endFill=0;endSize=2;fontFamily=Helvetica;fontSize=8;strokeColor=#98A2AE;" edge="1" parent="1">
          <mxGeometry relative="1" as="geometry">
            <mxPoint x="283" y="326" as="sourcePoint" />
            <mxPoint x="261" y="302" as="targetPoint" />
          </mxGeometry>
        </mxCell>
        <mxCell id="Shn82EJDHSnE-vzaOmSC-7" value="" style="rounded=0;whiteSpace=wrap;html=1;fontFamily=Helvetica;fontSize=8;strokeColor=none;fillColor=#DDE9F5;" vertex="1" parent="1">
          <mxGeometry x="133" y="211" width="323" height="41" as="geometry" />
        </mxCell>
        <mxCell id="Shn82EJDHSnE-vzaOmSC-8" style="rounded=0;orthogonalLoop=1;jettySize=auto;html=1;exitX=0.5;exitY=0;exitDx=0;exitDy=0;entryX=0.5;entryY=1;entryDx=0;entryDy=0;startSize=6;endArrow=none;endFill=0;endSize=2;fontFamily=Helvetica;fontSize=8;strokeColor=#98A2AE;" edge="1" parent="1">
          <mxGeometry relative="1" as="geometry">
            <mxPoint x="203" y="272" as="sourcePoint" />
            <mxPoint x="273" y="246" as="targetPoint" />
          </mxGeometry>
        </mxCell>
        <mxCell id="Shn82EJDHSnE-vzaOmSC-9" style="rounded=0;orthogonalLoop=1;jettySize=auto;html=1;exitX=0.5;exitY=0;exitDx=0;exitDy=0;entryX=0.5;entryY=1;entryDx=0;entryDy=0;startSize=6;endArrow=none;endFill=0;endSize=2;fontFamily=Helvetica;fontSize=8;strokeColor=#98A2AE;" edge="1" parent="1">
          <mxGeometry relative="1" as="geometry">
            <mxPoint x="261" y="272" as="sourcePoint" />
            <mxPoint x="337" y="246" as="targetPoint" />
          </mxGeometry>
        </mxCell>
        <mxCell id="Shn82EJDHSnE-vzaOmSC-10" style="rounded=0;orthogonalLoop=1;jettySize=auto;html=1;exitX=0.5;exitY=0;exitDx=0;exitDy=0;entryX=0.5;entryY=1;entryDx=0;entryDy=0;startSize=6;endArrow=none;endFill=0;endSize=2;fontFamily=Helvetica;fontSize=8;strokeColor=#98A2AE;" edge="1" parent="1">
          <mxGeometry relative="1" as="geometry">
            <mxPoint x="330" y="326" as="sourcePoint" />
            <mxPoint x="352" y="302" as="targetPoint" />
          </mxGeometry>
        </mxCell>
        <mxCell id="Shn82EJDHSnE-vzaOmSC-11" style="rounded=0;orthogonalLoop=1;jettySize=auto;html=1;exitX=0.5;exitY=0;exitDx=0;exitDy=0;entryX=0.5;entryY=1;entryDx=0;entryDy=0;startSize=6;endArrow=none;endFill=0;endSize=2;fontFamily=Helvetica;fontSize=8;strokeColor=#98A2AE;" edge="1" parent="1">
          <mxGeometry relative="1" as="geometry">
            <mxPoint x="330" y="326" as="sourcePoint" />
            <mxPoint x="410" y="302" as="targetPoint" />
          </mxGeometry>
        </mxCell>
        <mxCell id="Shn82EJDHSnE-vzaOmSC-12" style="rounded=0;orthogonalLoop=1;jettySize=auto;html=1;exitX=0.5;exitY=0;exitDx=0;exitDy=0;entryX=0.5;entryY=1;entryDx=0;entryDy=0;startSize=6;endArrow=none;endFill=0;endSize=2;fontFamily=Helvetica;fontSize=8;strokeColor=#98A2AE;" edge="1" parent="1">
          <mxGeometry relative="1" as="geometry">
            <mxPoint x="432" y="326" as="sourcePoint" />
            <mxPoint x="352" y="302" as="targetPoint" />
          </mxGeometry>
        </mxCell>
        <mxCell id="Shn82EJDHSnE-vzaOmSC-13" style="rounded=0;orthogonalLoop=1;jettySize=auto;html=1;exitX=0.5;exitY=0;exitDx=0;exitDy=0;entryX=0.5;entryY=1;entryDx=0;entryDy=0;startSize=6;endArrow=none;endFill=0;endSize=2;fontFamily=Helvetica;fontSize=8;strokeColor=#98A2AE;" edge="1" parent="1">
          <mxGeometry relative="1" as="geometry">
            <mxPoint x="432" y="326" as="sourcePoint" />
            <mxPoint x="410" y="302" as="targetPoint" />
          </mxGeometry>
        </mxCell>
        <mxCell id="Shn82EJDHSnE-vzaOmSC-14" style="rounded=0;orthogonalLoop=1;jettySize=auto;html=1;exitX=0.5;exitY=0;exitDx=0;exitDy=0;entryX=0.5;entryY=1;entryDx=0;entryDy=0;startSize=6;endArrow=none;endFill=0;endSize=2;fontFamily=Helvetica;fontSize=8;strokeColor=#98A2AE;" edge="1" parent="1">
          <mxGeometry relative="1" as="geometry">
            <mxPoint x="352" y="272" as="sourcePoint" />
            <mxPoint x="273" y="246" as="targetPoint" />
          </mxGeometry>
        </mxCell>
        <mxCell id="Shn82EJDHSnE-vzaOmSC-15" style="rounded=0;orthogonalLoop=1;jettySize=auto;html=1;exitX=0.5;exitY=0;exitDx=0;exitDy=0;entryX=0.5;entryY=1;entryDx=0;entryDy=0;startSize=6;endArrow=none;endFill=0;endSize=2;fontFamily=Helvetica;fontSize=8;strokeColor=#98A2AE;" edge="1" parent="1">
          <mxGeometry relative="1" as="geometry">
            <mxPoint x="410" y="272" as="sourcePoint" />
            <mxPoint x="337" y="246" as="targetPoint" />
          </mxGeometry>
        </mxCell>
        <mxCell id="Shn82EJDHSnE-vzaOmSC-16" value="Super&lt;br style=&quot;font-size: 10px;&quot;&gt;Spine" style="text;html=1;align=left;verticalAlign=middle;resizable=0;points=[];autosize=1;fontSize=10;fontFamily=Helvetica;rotation=0;fontColor=#001135;fontStyle=1" vertex="1" parent="1">
          <mxGeometry x="136" y="217" width="39" height="29" as="geometry" />
        </mxCell>
        <mxCell id="Shn82EJDHSnE-vzaOmSC-17" value="Spine" style="text;html=1;align=left;verticalAlign=middle;resizable=0;points=[];autosize=1;fontSize=10;fontFamily=Helvetica;rotation=0;fontColor=#001135;fontStyle=1" vertex="1" parent="1">
          <mxGeometry x="136" y="278.5" width="38" height="17" as="geometry" />
        </mxCell>
        <mxCell id="Shn82EJDHSnE-vzaOmSC-18" value="Leaf" style="text;html=1;align=left;verticalAlign=middle;resizable=0;points=[];autosize=1;fontSize=10;fontFamily=Helvetica;rotation=0;fontColor=#001135;fontStyle=1" vertex="1" parent="1">
          <mxGeometry x="136" y="332.5" width="32" height="17" as="geometry" />
        </mxCell>
        <mxCell id="Shn82EJDHSnE-vzaOmSC-19" value="" style="group;fontFamily=Helvetica;" vertex="1" connectable="0" parent="1">
          <mxGeometry x="166" y="326" width="30" height="30" as="geometry" />
        </mxCell>
        <mxCell id="Shn82EJDHSnE-vzaOmSC-20" value="" style="whiteSpace=wrap;html=1;aspect=fixed;fillColor=#001135;strokeColor=none;connectable=1;allowArrows=1;fontFamily=Helvetica;" vertex="1" parent="Shn82EJDHSnE-vzaOmSC-19">
          <mxGeometry width="30" height="30" as="geometry" />
        </mxCell>
        <mxCell id="Shn82EJDHSnE-vzaOmSC-21" value="" style="endArrow=open;html=1;edgeStyle=orthogonalEdgeStyle;rounded=0;endFill=0;startSize=6;endSize=2;strokeColor=#FFFFFF;fontFamily=Helvetica;" edge="1" parent="Shn82EJDHSnE-vzaOmSC-19">
          <mxGeometry width="50" height="50" relative="1" as="geometry">
            <mxPoint x="3" y="12" as="sourcePoint" />
            <mxPoint x="11" y="3" as="targetPoint" />
            <Array as="points">
              <mxPoint x="11" y="12" />
            </Array>
          </mxGeometry>
        </mxCell>
        <mxCell id="Shn82EJDHSnE-vzaOmSC-22" value="" style="endArrow=open;html=1;edgeStyle=orthogonalEdgeStyle;rounded=0;endFill=0;startSize=6;endSize=2;strokeColor=#FFFFFF;fontFamily=Helvetica;" edge="1" parent="Shn82EJDHSnE-vzaOmSC-19">
          <mxGeometry width="50" height="50" relative="1" as="geometry">
            <mxPoint x="11" y="27" as="sourcePoint" />
            <mxPoint x="3" y="19" as="targetPoint" />
            <Array as="points">
              <mxPoint x="11" y="19" />
            </Array>
          </mxGeometry>
        </mxCell>
        <mxCell id="Shn82EJDHSnE-vzaOmSC-23" value="" style="endArrow=open;html=1;edgeStyle=orthogonalEdgeStyle;rounded=0;endFill=0;startSize=6;endSize=2;strokeColor=#FFFFFF;fontFamily=Helvetica;" edge="1" parent="Shn82EJDHSnE-vzaOmSC-19">
          <mxGeometry width="50" height="50" relative="1" as="geometry">
            <mxPoint x="18" y="3" as="sourcePoint" />
            <mxPoint x="27" y="12" as="targetPoint" />
            <Array as="points">
              <mxPoint x="18" y="12" />
            </Array>
          </mxGeometry>
        </mxCell>
        <mxCell id="Shn82EJDHSnE-vzaOmSC-24" value="" style="endArrow=open;html=1;edgeStyle=orthogonalEdgeStyle;rounded=0;endFill=0;startSize=6;endSize=2;strokeColor=#FFFFFF;fontFamily=Helvetica;" edge="1" parent="Shn82EJDHSnE-vzaOmSC-19">
          <mxGeometry width="50" height="50" relative="1" as="geometry">
            <mxPoint x="27" y="19" as="sourcePoint" />
            <mxPoint x="18" y="27" as="targetPoint" />
            <Array as="points">
              <mxPoint x="18" y="19" />
            </Array>
          </mxGeometry>
        </mxCell>
        <mxCell id="Shn82EJDHSnE-vzaOmSC-25" value="" style="group;fontFamily=Helvetica;" vertex="1" connectable="0" parent="1">
          <mxGeometry x="268" y="326" width="30" height="30" as="geometry" />
        </mxCell>
        <mxCell id="Shn82EJDHSnE-vzaOmSC-26" value="" style="whiteSpace=wrap;html=1;aspect=fixed;fillColor=#001135;strokeColor=none;connectable=1;allowArrows=1;fontFamily=Helvetica;" vertex="1" parent="Shn82EJDHSnE-vzaOmSC-25">
          <mxGeometry width="30" height="30" as="geometry" />
        </mxCell>
        <mxCell id="Shn82EJDHSnE-vzaOmSC-27" value="" style="endArrow=open;html=1;edgeStyle=orthogonalEdgeStyle;rounded=0;endFill=0;startSize=6;endSize=2;strokeColor=#FFFFFF;fontFamily=Helvetica;" edge="1" parent="Shn82EJDHSnE-vzaOmSC-25">
          <mxGeometry width="50" height="50" relative="1" as="geometry">
            <mxPoint x="3" y="12" as="sourcePoint" />
            <mxPoint x="11" y="3" as="targetPoint" />
            <Array as="points">
              <mxPoint x="11" y="12" />
            </Array>
          </mxGeometry>
        </mxCell>
        <mxCell id="Shn82EJDHSnE-vzaOmSC-28" value="" style="endArrow=open;html=1;edgeStyle=orthogonalEdgeStyle;rounded=0;endFill=0;startSize=6;endSize=2;strokeColor=#FFFFFF;fontFamily=Helvetica;" edge="1" parent="Shn82EJDHSnE-vzaOmSC-25">
          <mxGeometry width="50" height="50" relative="1" as="geometry">
            <mxPoint x="11" y="27" as="sourcePoint" />
            <mxPoint x="3" y="19" as="targetPoint" />
            <Array as="points">
              <mxPoint x="11" y="19" />
            </Array>
          </mxGeometry>
        </mxCell>
        <mxCell id="Shn82EJDHSnE-vzaOmSC-29" value="" style="endArrow=open;html=1;edgeStyle=orthogonalEdgeStyle;rounded=0;endFill=0;startSize=6;endSize=2;strokeColor=#FFFFFF;fontFamily=Helvetica;" edge="1" parent="Shn82EJDHSnE-vzaOmSC-25">
          <mxGeometry width="50" height="50" relative="1" as="geometry">
            <mxPoint x="18" y="3" as="sourcePoint" />
            <mxPoint x="27" y="12" as="targetPoint" />
            <Array as="points">
              <mxPoint x="18" y="12" />
            </Array>
          </mxGeometry>
        </mxCell>
        <mxCell id="Shn82EJDHSnE-vzaOmSC-30" value="" style="endArrow=open;html=1;edgeStyle=orthogonalEdgeStyle;rounded=0;endFill=0;startSize=6;endSize=2;strokeColor=#FFFFFF;fontFamily=Helvetica;" edge="1" parent="Shn82EJDHSnE-vzaOmSC-25">
          <mxGeometry width="50" height="50" relative="1" as="geometry">
            <mxPoint x="27" y="19" as="sourcePoint" />
            <mxPoint x="18" y="27" as="targetPoint" />
            <Array as="points">
              <mxPoint x="18" y="19" />
            </Array>
          </mxGeometry>
        </mxCell>
        <mxCell id="Shn82EJDHSnE-vzaOmSC-31" value="" style="group;fontFamily=Helvetica;" vertex="1" connectable="0" parent="1">
          <mxGeometry x="315" y="326" width="30" height="30" as="geometry" />
        </mxCell>
        <mxCell id="Shn82EJDHSnE-vzaOmSC-32" value="" style="whiteSpace=wrap;html=1;aspect=fixed;fillColor=#001135;strokeColor=none;connectable=1;allowArrows=1;fontFamily=Helvetica;" vertex="1" parent="Shn82EJDHSnE-vzaOmSC-31">
          <mxGeometry width="30" height="30" as="geometry" />
        </mxCell>
        <mxCell id="Shn82EJDHSnE-vzaOmSC-33" value="" style="endArrow=open;html=1;edgeStyle=orthogonalEdgeStyle;rounded=0;endFill=0;startSize=6;endSize=2;strokeColor=#FFFFFF;fontFamily=Helvetica;" edge="1" parent="Shn82EJDHSnE-vzaOmSC-31">
          <mxGeometry width="50" height="50" relative="1" as="geometry">
            <mxPoint x="3" y="12" as="sourcePoint" />
            <mxPoint x="11" y="3" as="targetPoint" />
            <Array as="points">
              <mxPoint x="11" y="12" />
            </Array>
          </mxGeometry>
        </mxCell>
        <mxCell id="Shn82EJDHSnE-vzaOmSC-34" value="" style="endArrow=open;html=1;edgeStyle=orthogonalEdgeStyle;rounded=0;endFill=0;startSize=6;endSize=2;strokeColor=#FFFFFF;fontFamily=Helvetica;" edge="1" parent="Shn82EJDHSnE-vzaOmSC-31">
          <mxGeometry width="50" height="50" relative="1" as="geometry">
            <mxPoint x="11" y="27" as="sourcePoint" />
            <mxPoint x="3" y="19" as="targetPoint" />
            <Array as="points">
              <mxPoint x="11" y="19" />
            </Array>
          </mxGeometry>
        </mxCell>
        <mxCell id="Shn82EJDHSnE-vzaOmSC-35" value="" style="endArrow=open;html=1;edgeStyle=orthogonalEdgeStyle;rounded=0;endFill=0;startSize=6;endSize=2;strokeColor=#FFFFFF;fontFamily=Helvetica;" edge="1" parent="Shn82EJDHSnE-vzaOmSC-31">
          <mxGeometry width="50" height="50" relative="1" as="geometry">
            <mxPoint x="18" y="3" as="sourcePoint" />
            <mxPoint x="27" y="12" as="targetPoint" />
            <Array as="points">
              <mxPoint x="18" y="12" />
            </Array>
          </mxGeometry>
        </mxCell>
        <mxCell id="Shn82EJDHSnE-vzaOmSC-36" value="" style="endArrow=open;html=1;edgeStyle=orthogonalEdgeStyle;rounded=0;endFill=0;startSize=6;endSize=2;strokeColor=#FFFFFF;fontFamily=Helvetica;" edge="1" parent="Shn82EJDHSnE-vzaOmSC-31">
          <mxGeometry width="50" height="50" relative="1" as="geometry">
            <mxPoint x="27" y="19" as="sourcePoint" />
            <mxPoint x="18" y="27" as="targetPoint" />
            <Array as="points">
              <mxPoint x="18" y="19" />
            </Array>
          </mxGeometry>
        </mxCell>
        <mxCell id="Shn82EJDHSnE-vzaOmSC-37" value="" style="group;fontFamily=Helvetica;" vertex="1" connectable="0" parent="1">
          <mxGeometry x="417" y="326" width="30" height="30" as="geometry" />
        </mxCell>
        <mxCell id="Shn82EJDHSnE-vzaOmSC-38" value="" style="whiteSpace=wrap;html=1;aspect=fixed;fillColor=#001135;strokeColor=none;connectable=1;allowArrows=1;fontFamily=Helvetica;" vertex="1" parent="Shn82EJDHSnE-vzaOmSC-37">
          <mxGeometry width="30" height="30" as="geometry" />
        </mxCell>
        <mxCell id="Shn82EJDHSnE-vzaOmSC-39" value="" style="endArrow=open;html=1;edgeStyle=orthogonalEdgeStyle;rounded=0;endFill=0;startSize=6;endSize=2;strokeColor=#FFFFFF;fontFamily=Helvetica;" edge="1" parent="Shn82EJDHSnE-vzaOmSC-37">
          <mxGeometry width="50" height="50" relative="1" as="geometry">
            <mxPoint x="3" y="12" as="sourcePoint" />
            <mxPoint x="11" y="3" as="targetPoint" />
            <Array as="points">
              <mxPoint x="11" y="12" />
            </Array>
          </mxGeometry>
        </mxCell>
        <mxCell id="Shn82EJDHSnE-vzaOmSC-40" value="" style="endArrow=open;html=1;edgeStyle=orthogonalEdgeStyle;rounded=0;endFill=0;startSize=6;endSize=2;strokeColor=#FFFFFF;fontFamily=Helvetica;" edge="1" parent="Shn82EJDHSnE-vzaOmSC-37">
          <mxGeometry width="50" height="50" relative="1" as="geometry">
            <mxPoint x="11" y="27" as="sourcePoint" />
            <mxPoint x="3" y="19" as="targetPoint" />
            <Array as="points">
              <mxPoint x="11" y="19" />
            </Array>
          </mxGeometry>
        </mxCell>
        <mxCell id="Shn82EJDHSnE-vzaOmSC-41" value="" style="endArrow=open;html=1;edgeStyle=orthogonalEdgeStyle;rounded=0;endFill=0;startSize=6;endSize=2;strokeColor=#FFFFFF;fontFamily=Helvetica;" edge="1" parent="Shn82EJDHSnE-vzaOmSC-37">
          <mxGeometry width="50" height="50" relative="1" as="geometry">
            <mxPoint x="18" y="3" as="sourcePoint" />
            <mxPoint x="27" y="12" as="targetPoint" />
            <Array as="points">
              <mxPoint x="18" y="12" />
            </Array>
          </mxGeometry>
        </mxCell>
        <mxCell id="Shn82EJDHSnE-vzaOmSC-42" value="" style="endArrow=open;html=1;edgeStyle=orthogonalEdgeStyle;rounded=0;endFill=0;startSize=6;endSize=2;strokeColor=#FFFFFF;fontFamily=Helvetica;" edge="1" parent="Shn82EJDHSnE-vzaOmSC-37">
          <mxGeometry width="50" height="50" relative="1" as="geometry">
            <mxPoint x="27" y="19" as="sourcePoint" />
            <mxPoint x="18" y="27" as="targetPoint" />
            <Array as="points">
              <mxPoint x="18" y="19" />
            </Array>
          </mxGeometry>
        </mxCell>
        <mxCell id="Shn82EJDHSnE-vzaOmSC-43" value="" style="group;fontFamily=Helvetica;" vertex="1" connectable="0" parent="1">
          <mxGeometry x="395" y="272" width="30" height="30" as="geometry" />
        </mxCell>
        <mxCell id="Shn82EJDHSnE-vzaOmSC-44" value="" style="whiteSpace=wrap;html=1;aspect=fixed;fillColor=#001135;strokeColor=none;connectable=1;allowArrows=1;fontFamily=Helvetica;" vertex="1" parent="Shn82EJDHSnE-vzaOmSC-43">
          <mxGeometry width="30" height="30" as="geometry" />
        </mxCell>
        <mxCell id="Shn82EJDHSnE-vzaOmSC-45" value="" style="endArrow=open;html=1;edgeStyle=orthogonalEdgeStyle;rounded=0;endFill=0;startSize=6;endSize=2;strokeColor=#FFFFFF;fontFamily=Helvetica;" edge="1" parent="Shn82EJDHSnE-vzaOmSC-43">
          <mxGeometry width="50" height="50" relative="1" as="geometry">
            <mxPoint x="3" y="12" as="sourcePoint" />
            <mxPoint x="11" y="3" as="targetPoint" />
            <Array as="points">
              <mxPoint x="11" y="12" />
            </Array>
          </mxGeometry>
        </mxCell>
        <mxCell id="Shn82EJDHSnE-vzaOmSC-46" value="" style="endArrow=open;html=1;edgeStyle=orthogonalEdgeStyle;rounded=0;endFill=0;startSize=6;endSize=2;strokeColor=#FFFFFF;fontFamily=Helvetica;" edge="1" parent="Shn82EJDHSnE-vzaOmSC-43">
          <mxGeometry width="50" height="50" relative="1" as="geometry">
            <mxPoint x="11" y="27" as="sourcePoint" />
            <mxPoint x="3" y="19" as="targetPoint" />
            <Array as="points">
              <mxPoint x="11" y="19" />
            </Array>
          </mxGeometry>
        </mxCell>
        <mxCell id="Shn82EJDHSnE-vzaOmSC-47" value="" style="endArrow=open;html=1;edgeStyle=orthogonalEdgeStyle;rounded=0;endFill=0;startSize=6;endSize=2;strokeColor=#FFFFFF;fontFamily=Helvetica;" edge="1" parent="Shn82EJDHSnE-vzaOmSC-43">
          <mxGeometry width="50" height="50" relative="1" as="geometry">
            <mxPoint x="18" y="3" as="sourcePoint" />
            <mxPoint x="27" y="12" as="targetPoint" />
            <Array as="points">
              <mxPoint x="18" y="12" />
            </Array>
          </mxGeometry>
        </mxCell>
        <mxCell id="Shn82EJDHSnE-vzaOmSC-48" value="" style="endArrow=open;html=1;edgeStyle=orthogonalEdgeStyle;rounded=0;endFill=0;startSize=6;endSize=2;strokeColor=#FFFFFF;fontFamily=Helvetica;" edge="1" parent="Shn82EJDHSnE-vzaOmSC-43">
          <mxGeometry width="50" height="50" relative="1" as="geometry">
            <mxPoint x="27" y="19" as="sourcePoint" />
            <mxPoint x="18" y="27" as="targetPoint" />
            <Array as="points">
              <mxPoint x="18" y="19" />
            </Array>
          </mxGeometry>
        </mxCell>
        <mxCell id="Shn82EJDHSnE-vzaOmSC-49" value="" style="group;fontFamily=Helvetica;" vertex="1" connectable="0" parent="1">
          <mxGeometry x="337" y="272" width="30" height="30" as="geometry" />
        </mxCell>
        <mxCell id="Shn82EJDHSnE-vzaOmSC-50" value="" style="whiteSpace=wrap;html=1;aspect=fixed;fillColor=#001135;strokeColor=none;connectable=1;allowArrows=1;fontFamily=Helvetica;" vertex="1" parent="Shn82EJDHSnE-vzaOmSC-49">
          <mxGeometry width="30" height="30" as="geometry" />
        </mxCell>
        <mxCell id="Shn82EJDHSnE-vzaOmSC-51" value="" style="endArrow=open;html=1;edgeStyle=orthogonalEdgeStyle;rounded=0;endFill=0;startSize=6;endSize=2;strokeColor=#FFFFFF;fontFamily=Helvetica;" edge="1" parent="Shn82EJDHSnE-vzaOmSC-49">
          <mxGeometry width="50" height="50" relative="1" as="geometry">
            <mxPoint x="3" y="12" as="sourcePoint" />
            <mxPoint x="11" y="3" as="targetPoint" />
            <Array as="points">
              <mxPoint x="11" y="12" />
            </Array>
          </mxGeometry>
        </mxCell>
        <mxCell id="Shn82EJDHSnE-vzaOmSC-52" value="" style="endArrow=open;html=1;edgeStyle=orthogonalEdgeStyle;rounded=0;endFill=0;startSize=6;endSize=2;strokeColor=#FFFFFF;fontFamily=Helvetica;" edge="1" parent="Shn82EJDHSnE-vzaOmSC-49">
          <mxGeometry width="50" height="50" relative="1" as="geometry">
            <mxPoint x="11" y="27" as="sourcePoint" />
            <mxPoint x="3" y="19" as="targetPoint" />
            <Array as="points">
              <mxPoint x="11" y="19" />
            </Array>
          </mxGeometry>
        </mxCell>
        <mxCell id="Shn82EJDHSnE-vzaOmSC-53" value="" style="endArrow=open;html=1;edgeStyle=orthogonalEdgeStyle;rounded=0;endFill=0;startSize=6;endSize=2;strokeColor=#FFFFFF;fontFamily=Helvetica;" edge="1" parent="Shn82EJDHSnE-vzaOmSC-49">
          <mxGeometry width="50" height="50" relative="1" as="geometry">
            <mxPoint x="18" y="3" as="sourcePoint" />
            <mxPoint x="27" y="12" as="targetPoint" />
            <Array as="points">
              <mxPoint x="18" y="12" />
            </Array>
          </mxGeometry>
        </mxCell>
        <mxCell id="Shn82EJDHSnE-vzaOmSC-54" value="" style="endArrow=open;html=1;edgeStyle=orthogonalEdgeStyle;rounded=0;endFill=0;startSize=6;endSize=2;strokeColor=#FFFFFF;fontFamily=Helvetica;" edge="1" parent="Shn82EJDHSnE-vzaOmSC-49">
          <mxGeometry width="50" height="50" relative="1" as="geometry">
            <mxPoint x="27" y="19" as="sourcePoint" />
            <mxPoint x="18" y="27" as="targetPoint" />
            <Array as="points">
              <mxPoint x="18" y="19" />
            </Array>
          </mxGeometry>
        </mxCell>
        <mxCell id="Shn82EJDHSnE-vzaOmSC-55" value="" style="group;fontFamily=Helvetica;" vertex="1" connectable="0" parent="1">
          <mxGeometry x="246" y="272" width="30" height="30" as="geometry" />
        </mxCell>
        <mxCell id="Shn82EJDHSnE-vzaOmSC-56" value="" style="whiteSpace=wrap;html=1;aspect=fixed;fillColor=#001135;strokeColor=none;connectable=1;allowArrows=1;fontFamily=Helvetica;" vertex="1" parent="Shn82EJDHSnE-vzaOmSC-55">
          <mxGeometry width="30" height="30" as="geometry" />
        </mxCell>
        <mxCell id="Shn82EJDHSnE-vzaOmSC-57" value="" style="endArrow=open;html=1;edgeStyle=orthogonalEdgeStyle;rounded=0;endFill=0;startSize=6;endSize=2;strokeColor=#FFFFFF;fontFamily=Helvetica;" edge="1" parent="Shn82EJDHSnE-vzaOmSC-55">
          <mxGeometry width="50" height="50" relative="1" as="geometry">
            <mxPoint x="3" y="12" as="sourcePoint" />
            <mxPoint x="11" y="3" as="targetPoint" />
            <Array as="points">
              <mxPoint x="11" y="12" />
            </Array>
          </mxGeometry>
        </mxCell>
        <mxCell id="Shn82EJDHSnE-vzaOmSC-58" value="" style="endArrow=open;html=1;edgeStyle=orthogonalEdgeStyle;rounded=0;endFill=0;startSize=6;endSize=2;strokeColor=#FFFFFF;fontFamily=Helvetica;" edge="1" parent="Shn82EJDHSnE-vzaOmSC-55">
          <mxGeometry width="50" height="50" relative="1" as="geometry">
            <mxPoint x="11" y="27" as="sourcePoint" />
            <mxPoint x="3" y="19" as="targetPoint" />
            <Array as="points">
              <mxPoint x="11" y="19" />
            </Array>
          </mxGeometry>
        </mxCell>
        <mxCell id="Shn82EJDHSnE-vzaOmSC-59" value="" style="endArrow=open;html=1;edgeStyle=orthogonalEdgeStyle;rounded=0;endFill=0;startSize=6;endSize=2;strokeColor=#FFFFFF;fontFamily=Helvetica;" edge="1" parent="Shn82EJDHSnE-vzaOmSC-55">
          <mxGeometry width="50" height="50" relative="1" as="geometry">
            <mxPoint x="18" y="3" as="sourcePoint" />
            <mxPoint x="27" y="12" as="targetPoint" />
            <Array as="points">
              <mxPoint x="18" y="12" />
            </Array>
          </mxGeometry>
        </mxCell>
        <mxCell id="Shn82EJDHSnE-vzaOmSC-60" value="" style="endArrow=open;html=1;edgeStyle=orthogonalEdgeStyle;rounded=0;endFill=0;startSize=6;endSize=2;strokeColor=#FFFFFF;fontFamily=Helvetica;" edge="1" parent="Shn82EJDHSnE-vzaOmSC-55">
          <mxGeometry width="50" height="50" relative="1" as="geometry">
            <mxPoint x="27" y="19" as="sourcePoint" />
            <mxPoint x="18" y="27" as="targetPoint" />
            <Array as="points">
              <mxPoint x="18" y="19" />
            </Array>
          </mxGeometry>
        </mxCell>
        <mxCell id="Shn82EJDHSnE-vzaOmSC-61" value="" style="group;fontFamily=Helvetica;" vertex="1" connectable="0" parent="1">
          <mxGeometry x="188" y="272" width="30" height="30" as="geometry" />
        </mxCell>
        <mxCell id="Shn82EJDHSnE-vzaOmSC-62" value="" style="whiteSpace=wrap;html=1;aspect=fixed;fillColor=#001135;strokeColor=none;connectable=1;allowArrows=1;fontFamily=Helvetica;" vertex="1" parent="Shn82EJDHSnE-vzaOmSC-61">
          <mxGeometry width="30" height="30" as="geometry" />
        </mxCell>
        <mxCell id="Shn82EJDHSnE-vzaOmSC-63" value="" style="endArrow=open;html=1;edgeStyle=orthogonalEdgeStyle;rounded=0;endFill=0;startSize=6;endSize=2;strokeColor=#FFFFFF;fontFamily=Helvetica;" edge="1" parent="Shn82EJDHSnE-vzaOmSC-61">
          <mxGeometry width="50" height="50" relative="1" as="geometry">
            <mxPoint x="3" y="12" as="sourcePoint" />
            <mxPoint x="11" y="3" as="targetPoint" />
            <Array as="points">
              <mxPoint x="11" y="12" />
            </Array>
          </mxGeometry>
        </mxCell>
        <mxCell id="Shn82EJDHSnE-vzaOmSC-64" value="" style="endArrow=open;html=1;edgeStyle=orthogonalEdgeStyle;rounded=0;endFill=0;startSize=6;endSize=2;strokeColor=#FFFFFF;fontFamily=Helvetica;" edge="1" parent="Shn82EJDHSnE-vzaOmSC-61">
          <mxGeometry width="50" height="50" relative="1" as="geometry">
            <mxPoint x="11" y="27" as="sourcePoint" />
            <mxPoint x="3" y="19" as="targetPoint" />
            <Array as="points">
              <mxPoint x="11" y="19" />
            </Array>
          </mxGeometry>
        </mxCell>
        <mxCell id="Shn82EJDHSnE-vzaOmSC-65" value="" style="endArrow=open;html=1;edgeStyle=orthogonalEdgeStyle;rounded=0;endFill=0;startSize=6;endSize=2;strokeColor=#FFFFFF;fontFamily=Helvetica;" edge="1" parent="Shn82EJDHSnE-vzaOmSC-61">
          <mxGeometry width="50" height="50" relative="1" as="geometry">
            <mxPoint x="18" y="3" as="sourcePoint" />
            <mxPoint x="27" y="12" as="targetPoint" />
            <Array as="points">
              <mxPoint x="18" y="12" />
            </Array>
          </mxGeometry>
        </mxCell>
        <mxCell id="Shn82EJDHSnE-vzaOmSC-66" value="" style="endArrow=open;html=1;edgeStyle=orthogonalEdgeStyle;rounded=0;endFill=0;startSize=6;endSize=2;strokeColor=#FFFFFF;fontFamily=Helvetica;" edge="1" parent="Shn82EJDHSnE-vzaOmSC-61">
          <mxGeometry width="50" height="50" relative="1" as="geometry">
            <mxPoint x="27" y="19" as="sourcePoint" />
            <mxPoint x="18" y="27" as="targetPoint" />
            <Array as="points">
              <mxPoint x="18" y="19" />
            </Array>
          </mxGeometry>
        </mxCell>
        <mxCell id="Shn82EJDHSnE-vzaOmSC-67" value="" style="group;fontFamily=Helvetica;" vertex="1" connectable="0" parent="1">
          <mxGeometry x="322" y="216" width="30" height="30" as="geometry" />
        </mxCell>
        <mxCell id="Shn82EJDHSnE-vzaOmSC-68" value="" style="whiteSpace=wrap;html=1;aspect=fixed;fillColor=#001135;strokeColor=none;connectable=1;allowArrows=1;fontFamily=Helvetica;" vertex="1" parent="Shn82EJDHSnE-vzaOmSC-67">
          <mxGeometry width="30" height="30" as="geometry" />
        </mxCell>
        <mxCell id="Shn82EJDHSnE-vzaOmSC-69" value="" style="endArrow=open;html=1;edgeStyle=orthogonalEdgeStyle;rounded=0;endFill=0;startSize=6;endSize=2;strokeColor=#FFFFFF;fontFamily=Helvetica;" edge="1" parent="Shn82EJDHSnE-vzaOmSC-67">
          <mxGeometry width="50" height="50" relative="1" as="geometry">
            <mxPoint x="3" y="12" as="sourcePoint" />
            <mxPoint x="11" y="3" as="targetPoint" />
            <Array as="points">
              <mxPoint x="11" y="12" />
            </Array>
          </mxGeometry>
        </mxCell>
        <mxCell id="Shn82EJDHSnE-vzaOmSC-70" value="" style="endArrow=open;html=1;edgeStyle=orthogonalEdgeStyle;rounded=0;endFill=0;startSize=6;endSize=2;strokeColor=#FFFFFF;fontFamily=Helvetica;" edge="1" parent="Shn82EJDHSnE-vzaOmSC-67">
          <mxGeometry width="50" height="50" relative="1" as="geometry">
            <mxPoint x="11" y="27" as="sourcePoint" />
            <mxPoint x="3" y="19" as="targetPoint" />
            <Array as="points">
              <mxPoint x="11" y="19" />
            </Array>
          </mxGeometry>
        </mxCell>
        <mxCell id="Shn82EJDHSnE-vzaOmSC-71" value="" style="endArrow=open;html=1;edgeStyle=orthogonalEdgeStyle;rounded=0;endFill=0;startSize=6;endSize=2;strokeColor=#FFFFFF;fontFamily=Helvetica;" edge="1" parent="Shn82EJDHSnE-vzaOmSC-67">
          <mxGeometry width="50" height="50" relative="1" as="geometry">
            <mxPoint x="18" y="3" as="sourcePoint" />
            <mxPoint x="27" y="12" as="targetPoint" />
            <Array as="points">
              <mxPoint x="18" y="12" />
            </Array>
          </mxGeometry>
        </mxCell>
        <mxCell id="Shn82EJDHSnE-vzaOmSC-72" value="" style="endArrow=open;html=1;edgeStyle=orthogonalEdgeStyle;rounded=0;endFill=0;startSize=6;endSize=2;strokeColor=#FFFFFF;fontFamily=Helvetica;" edge="1" parent="Shn82EJDHSnE-vzaOmSC-67">
          <mxGeometry width="50" height="50" relative="1" as="geometry">
            <mxPoint x="27" y="19" as="sourcePoint" />
            <mxPoint x="18" y="27" as="targetPoint" />
            <Array as="points">
              <mxPoint x="18" y="19" />
            </Array>
          </mxGeometry>
        </mxCell>
        <mxCell id="Shn82EJDHSnE-vzaOmSC-73" value="" style="group;fontFamily=Helvetica;" vertex="1" connectable="0" parent="1">
          <mxGeometry x="258" y="216" width="30" height="30" as="geometry" />
        </mxCell>
        <mxCell id="Shn82EJDHSnE-vzaOmSC-74" value="" style="whiteSpace=wrap;html=1;aspect=fixed;fillColor=#001135;strokeColor=none;connectable=1;allowArrows=1;fontFamily=Helvetica;" vertex="1" parent="Shn82EJDHSnE-vzaOmSC-73">
          <mxGeometry width="30" height="30" as="geometry" />
        </mxCell>
        <mxCell id="Shn82EJDHSnE-vzaOmSC-75" value="" style="endArrow=open;html=1;edgeStyle=orthogonalEdgeStyle;rounded=0;endFill=0;startSize=6;endSize=2;strokeColor=#FFFFFF;fontFamily=Helvetica;" edge="1" parent="Shn82EJDHSnE-vzaOmSC-73">
          <mxGeometry width="50" height="50" relative="1" as="geometry">
            <mxPoint x="3" y="12" as="sourcePoint" />
            <mxPoint x="11" y="3" as="targetPoint" />
            <Array as="points">
              <mxPoint x="11" y="12" />
            </Array>
          </mxGeometry>
        </mxCell>
        <mxCell id="Shn82EJDHSnE-vzaOmSC-76" value="" style="endArrow=open;html=1;edgeStyle=orthogonalEdgeStyle;rounded=0;endFill=0;startSize=6;endSize=2;strokeColor=#FFFFFF;fontFamily=Helvetica;" edge="1" parent="Shn82EJDHSnE-vzaOmSC-73">
          <mxGeometry width="50" height="50" relative="1" as="geometry">
            <mxPoint x="11" y="27" as="sourcePoint" />
            <mxPoint x="3" y="19" as="targetPoint" />
            <Array as="points">
              <mxPoint x="11" y="19" />
            </Array>
          </mxGeometry>
        </mxCell>
        <mxCell id="Shn82EJDHSnE-vzaOmSC-77" value="" style="endArrow=open;html=1;edgeStyle=orthogonalEdgeStyle;rounded=0;endFill=0;startSize=6;endSize=2;strokeColor=#FFFFFF;fontFamily=Helvetica;" edge="1" parent="Shn82EJDHSnE-vzaOmSC-73">
          <mxGeometry width="50" height="50" relative="1" as="geometry">
            <mxPoint x="18" y="3" as="sourcePoint" />
            <mxPoint x="27" y="12" as="targetPoint" />
            <Array as="points">
              <mxPoint x="18" y="12" />
            </Array>
          </mxGeometry>
        </mxCell>
        <mxCell id="Shn82EJDHSnE-vzaOmSC-78" value="" style="endArrow=open;html=1;edgeStyle=orthogonalEdgeStyle;rounded=0;endFill=0;startSize=6;endSize=2;strokeColor=#FFFFFF;fontFamily=Helvetica;" edge="1" parent="Shn82EJDHSnE-vzaOmSC-73">
          <mxGeometry width="50" height="50" relative="1" as="geometry">
            <mxPoint x="27" y="19" as="sourcePoint" />
            <mxPoint x="18" y="27" as="targetPoint" />
            <Array as="points">
              <mxPoint x="18" y="19" />
            </Array>
          </mxGeometry>
        </mxCell>
        <mxCell id="Shn82EJDHSnE-vzaOmSC-79" value="3/5-stage CLOS topologies" style="text;html=1;align=left;verticalAlign=middle;resizable=0;points=[];autosize=1;fontSize=10;fontFamily=Helvetica;rotation=0;fontColor=#001135;fontStyle=1" vertex="1" parent="1">
          <mxGeometry x="226" y="371" width="138" height="17" as="geometry" />
        </mxCell>
        <mxCell id="Shn82EJDHSnE-vzaOmSC-80" value="" style="group;fontFamily=Helvetica;" vertex="1" connectable="0" parent="1">
          <mxGeometry x="619" y="240" width="30" height="30" as="geometry" />
        </mxCell>
        <mxCell id="Shn82EJDHSnE-vzaOmSC-81" value="" style="whiteSpace=wrap;html=1;aspect=fixed;fillColor=#001135;strokeColor=none;connectable=1;allowArrows=1;fontFamily=Helvetica;" vertex="1" parent="Shn82EJDHSnE-vzaOmSC-80">
          <mxGeometry width="30" height="30" as="geometry" />
        </mxCell>
        <mxCell id="Shn82EJDHSnE-vzaOmSC-82" value="" style="endArrow=open;html=1;edgeStyle=orthogonalEdgeStyle;rounded=0;endFill=0;startSize=6;endSize=2;strokeColor=#FFFFFF;fontFamily=Helvetica;" edge="1" parent="Shn82EJDHSnE-vzaOmSC-80">
          <mxGeometry width="50" height="50" relative="1" as="geometry">
            <mxPoint x="3" y="12" as="sourcePoint" />
            <mxPoint x="11" y="3" as="targetPoint" />
            <Array as="points">
              <mxPoint x="11" y="12" />
            </Array>
          </mxGeometry>
        </mxCell>
        <mxCell id="Shn82EJDHSnE-vzaOmSC-83" value="" style="endArrow=open;html=1;edgeStyle=orthogonalEdgeStyle;rounded=0;endFill=0;startSize=6;endSize=2;strokeColor=#FFFFFF;fontFamily=Helvetica;" edge="1" parent="Shn82EJDHSnE-vzaOmSC-80">
          <mxGeometry width="50" height="50" relative="1" as="geometry">
            <mxPoint x="11" y="27" as="sourcePoint" />
            <mxPoint x="3" y="19" as="targetPoint" />
            <Array as="points">
              <mxPoint x="11" y="19" />
            </Array>
          </mxGeometry>
        </mxCell>
        <mxCell id="Shn82EJDHSnE-vzaOmSC-84" value="" style="endArrow=open;html=1;edgeStyle=orthogonalEdgeStyle;rounded=0;endFill=0;startSize=6;endSize=2;strokeColor=#FFFFFF;fontFamily=Helvetica;" edge="1" parent="Shn82EJDHSnE-vzaOmSC-80">
          <mxGeometry width="50" height="50" relative="1" as="geometry">
            <mxPoint x="18" y="3" as="sourcePoint" />
            <mxPoint x="27" y="12" as="targetPoint" />
            <Array as="points">
              <mxPoint x="18" y="12" />
            </Array>
          </mxGeometry>
        </mxCell>
        <mxCell id="Shn82EJDHSnE-vzaOmSC-85" value="" style="endArrow=open;html=1;edgeStyle=orthogonalEdgeStyle;rounded=0;endFill=0;startSize=6;endSize=2;strokeColor=#FFFFFF;fontFamily=Helvetica;" edge="1" parent="Shn82EJDHSnE-vzaOmSC-80">
          <mxGeometry width="50" height="50" relative="1" as="geometry">
            <mxPoint x="27" y="19" as="sourcePoint" />
            <mxPoint x="18" y="27" as="targetPoint" />
            <Array as="points">
              <mxPoint x="18" y="19" />
            </Array>
          </mxGeometry>
        </mxCell>
        <mxCell id="Shn82EJDHSnE-vzaOmSC-86" style="rounded=0;orthogonalLoop=1;jettySize=auto;html=1;exitX=0.25;exitY=0;exitDx=0;exitDy=0;entryX=0.25;entryY=1;entryDx=0;entryDy=0;startSize=6;endArrow=none;endFill=0;endSize=2;fontFamily=Helvetica;fontSize=8;strokeColor=#98A2AE;" edge="1" parent="1">
          <mxGeometry relative="1" as="geometry">
            <mxPoint x="629.5" y="298" as="sourcePoint" />
            <mxPoint x="629.5" y="270" as="targetPoint" />
          </mxGeometry>
        </mxCell>
        <mxCell id="Shn82EJDHSnE-vzaOmSC-87" style="rounded=0;orthogonalLoop=1;jettySize=auto;html=1;exitX=0.5;exitY=0;exitDx=0;exitDy=0;entryX=0.5;entryY=1;entryDx=0;entryDy=0;startSize=6;endArrow=none;endFill=0;endSize=2;fontFamily=Helvetica;fontSize=8;strokeColor=#98A2AE;" edge="1" parent="1">
          <mxGeometry relative="1" as="geometry">
            <mxPoint x="637" y="298" as="sourcePoint" />
            <mxPoint x="637" y="270" as="targetPoint" />
          </mxGeometry>
        </mxCell>
        <mxCell id="Shn82EJDHSnE-vzaOmSC-88" value="" style="group;fontFamily=Helvetica;" vertex="1" connectable="0" parent="1">
          <mxGeometry x="678" y="298" width="30" height="30" as="geometry" />
        </mxCell>
        <mxCell id="Shn82EJDHSnE-vzaOmSC-89" value="" style="whiteSpace=wrap;html=1;aspect=fixed;fillColor=#001135;strokeColor=none;connectable=1;allowArrows=1;fontFamily=Helvetica;" vertex="1" parent="Shn82EJDHSnE-vzaOmSC-88">
          <mxGeometry width="30" height="30" as="geometry" />
        </mxCell>
        <mxCell id="Shn82EJDHSnE-vzaOmSC-90" value="" style="endArrow=open;html=1;edgeStyle=orthogonalEdgeStyle;rounded=0;endFill=0;startSize=6;endSize=2;strokeColor=#FFFFFF;fontFamily=Helvetica;" edge="1" parent="Shn82EJDHSnE-vzaOmSC-88">
          <mxGeometry width="50" height="50" relative="1" as="geometry">
            <mxPoint x="3" y="12" as="sourcePoint" />
            <mxPoint x="11" y="3" as="targetPoint" />
            <Array as="points">
              <mxPoint x="11" y="12" />
            </Array>
          </mxGeometry>
        </mxCell>
        <mxCell id="Shn82EJDHSnE-vzaOmSC-91" value="" style="endArrow=open;html=1;edgeStyle=orthogonalEdgeStyle;rounded=0;endFill=0;startSize=6;endSize=2;strokeColor=#FFFFFF;fontFamily=Helvetica;" edge="1" parent="Shn82EJDHSnE-vzaOmSC-88">
          <mxGeometry width="50" height="50" relative="1" as="geometry">
            <mxPoint x="11" y="27" as="sourcePoint" />
            <mxPoint x="3" y="19" as="targetPoint" />
            <Array as="points">
              <mxPoint x="11" y="19" />
            </Array>
          </mxGeometry>
        </mxCell>
        <mxCell id="Shn82EJDHSnE-vzaOmSC-92" value="" style="endArrow=open;html=1;edgeStyle=orthogonalEdgeStyle;rounded=0;endFill=0;startSize=6;endSize=2;strokeColor=#FFFFFF;fontFamily=Helvetica;" edge="1" parent="Shn82EJDHSnE-vzaOmSC-88">
          <mxGeometry width="50" height="50" relative="1" as="geometry">
            <mxPoint x="18" y="3" as="sourcePoint" />
            <mxPoint x="27" y="12" as="targetPoint" />
            <Array as="points">
              <mxPoint x="18" y="12" />
            </Array>
          </mxGeometry>
        </mxCell>
        <mxCell id="Shn82EJDHSnE-vzaOmSC-93" value="" style="endArrow=open;html=1;edgeStyle=orthogonalEdgeStyle;rounded=0;endFill=0;startSize=6;endSize=2;strokeColor=#FFFFFF;fontFamily=Helvetica;" edge="1" parent="Shn82EJDHSnE-vzaOmSC-88">
          <mxGeometry width="50" height="50" relative="1" as="geometry">
            <mxPoint x="27" y="19" as="sourcePoint" />
            <mxPoint x="18" y="27" as="targetPoint" />
            <Array as="points">
              <mxPoint x="18" y="19" />
            </Array>
          </mxGeometry>
        </mxCell>
        <mxCell id="Shn82EJDHSnE-vzaOmSC-94" style="rounded=0;orthogonalLoop=1;jettySize=auto;html=1;exitX=1;exitY=0.5;exitDx=0;exitDy=0;entryX=0;entryY=0.5;entryDx=0;entryDy=0;startSize=6;endArrow=none;endFill=0;endSize=2;fontFamily=Helvetica;fontSize=8;strokeColor=#98A2AE;" edge="1" parent="1" source="Shn82EJDHSnE-vzaOmSC-114" target="Shn82EJDHSnE-vzaOmSC-89">
          <mxGeometry relative="1" as="geometry">
            <mxPoint x="638" y="299" as="sourcePoint" />
            <mxPoint x="638" y="271" as="targetPoint" />
          </mxGeometry>
        </mxCell>
        <mxCell id="Shn82EJDHSnE-vzaOmSC-95" value="" style="group;fontFamily=Helvetica;" vertex="1" connectable="0" parent="1">
          <mxGeometry x="521" y="240" width="82" height="30" as="geometry" />
        </mxCell>
        <mxCell id="Shn82EJDHSnE-vzaOmSC-96" value="" style="whiteSpace=wrap;html=1;aspect=fixed;fillColor=#001135;strokeColor=none;connectable=1;allowArrows=1;fontFamily=Helvetica;" vertex="1" parent="Shn82EJDHSnE-vzaOmSC-95">
          <mxGeometry width="30" height="30" as="geometry" />
        </mxCell>
        <mxCell id="Shn82EJDHSnE-vzaOmSC-97" value="" style="endArrow=open;html=1;edgeStyle=orthogonalEdgeStyle;rounded=0;endFill=0;startSize=6;endSize=2;strokeColor=#FFFFFF;fontFamily=Helvetica;" edge="1" parent="Shn82EJDHSnE-vzaOmSC-95">
          <mxGeometry width="50" height="50" relative="1" as="geometry">
            <mxPoint x="3" y="12" as="sourcePoint" />
            <mxPoint x="11" y="3" as="targetPoint" />
            <Array as="points">
              <mxPoint x="11" y="12" />
            </Array>
          </mxGeometry>
        </mxCell>
        <mxCell id="Shn82EJDHSnE-vzaOmSC-98" value="" style="endArrow=open;html=1;edgeStyle=orthogonalEdgeStyle;rounded=0;endFill=0;startSize=6;endSize=2;strokeColor=#FFFFFF;fontFamily=Helvetica;" edge="1" parent="Shn82EJDHSnE-vzaOmSC-95">
          <mxGeometry width="50" height="50" relative="1" as="geometry">
            <mxPoint x="11" y="27" as="sourcePoint" />
            <mxPoint x="3" y="19" as="targetPoint" />
            <Array as="points">
              <mxPoint x="11" y="19" />
            </Array>
          </mxGeometry>
        </mxCell>
        <mxCell id="Shn82EJDHSnE-vzaOmSC-99" value="" style="endArrow=open;html=1;edgeStyle=orthogonalEdgeStyle;rounded=0;endFill=0;startSize=6;endSize=2;strokeColor=#FFFFFF;fontFamily=Helvetica;" edge="1" parent="Shn82EJDHSnE-vzaOmSC-95">
          <mxGeometry width="50" height="50" relative="1" as="geometry">
            <mxPoint x="18" y="3" as="sourcePoint" />
            <mxPoint x="27" y="12" as="targetPoint" />
            <Array as="points">
              <mxPoint x="18" y="12" />
            </Array>
          </mxGeometry>
        </mxCell>
        <mxCell id="Shn82EJDHSnE-vzaOmSC-100" value="" style="endArrow=open;html=1;edgeStyle=orthogonalEdgeStyle;rounded=0;endFill=0;startSize=6;endSize=2;strokeColor=#FFFFFF;fontFamily=Helvetica;" edge="1" parent="Shn82EJDHSnE-vzaOmSC-95">
          <mxGeometry width="50" height="50" relative="1" as="geometry">
            <mxPoint x="27" y="19" as="sourcePoint" />
            <mxPoint x="18" y="27" as="targetPoint" />
            <Array as="points">
              <mxPoint x="18" y="19" />
            </Array>
          </mxGeometry>
        </mxCell>
        <mxCell id="Shn82EJDHSnE-vzaOmSC-101" value="" style="group;fontFamily=Helvetica;" vertex="1" connectable="0" parent="1">
          <mxGeometry x="521" y="298" width="30" height="30" as="geometry" />
        </mxCell>
        <mxCell id="Shn82EJDHSnE-vzaOmSC-102" value="" style="whiteSpace=wrap;html=1;aspect=fixed;fillColor=#001135;strokeColor=none;connectable=1;allowArrows=1;fontFamily=Helvetica;" vertex="1" parent="Shn82EJDHSnE-vzaOmSC-101">
          <mxGeometry width="30" height="30" as="geometry" />
        </mxCell>
        <mxCell id="Shn82EJDHSnE-vzaOmSC-103" value="" style="endArrow=open;html=1;edgeStyle=orthogonalEdgeStyle;rounded=0;endFill=0;startSize=6;endSize=2;strokeColor=#FFFFFF;fontFamily=Helvetica;" edge="1" parent="Shn82EJDHSnE-vzaOmSC-101">
          <mxGeometry width="50" height="50" relative="1" as="geometry">
            <mxPoint x="3" y="12" as="sourcePoint" />
            <mxPoint x="11" y="3" as="targetPoint" />
            <Array as="points">
              <mxPoint x="11" y="12" />
            </Array>
          </mxGeometry>
        </mxCell>
        <mxCell id="Shn82EJDHSnE-vzaOmSC-104" value="" style="endArrow=open;html=1;edgeStyle=orthogonalEdgeStyle;rounded=0;endFill=0;startSize=6;endSize=2;strokeColor=#FFFFFF;fontFamily=Helvetica;" edge="1" parent="Shn82EJDHSnE-vzaOmSC-101">
          <mxGeometry width="50" height="50" relative="1" as="geometry">
            <mxPoint x="11" y="27" as="sourcePoint" />
            <mxPoint x="3" y="19" as="targetPoint" />
            <Array as="points">
              <mxPoint x="11" y="19" />
            </Array>
          </mxGeometry>
        </mxCell>
        <mxCell id="Shn82EJDHSnE-vzaOmSC-105" value="" style="endArrow=open;html=1;edgeStyle=orthogonalEdgeStyle;rounded=0;endFill=0;startSize=6;endSize=2;strokeColor=#FFFFFF;fontFamily=Helvetica;" edge="1" parent="Shn82EJDHSnE-vzaOmSC-101">
          <mxGeometry width="50" height="50" relative="1" as="geometry">
            <mxPoint x="18" y="3" as="sourcePoint" />
            <mxPoint x="27" y="12" as="targetPoint" />
            <Array as="points">
              <mxPoint x="18" y="12" />
            </Array>
          </mxGeometry>
        </mxCell>
        <mxCell id="Shn82EJDHSnE-vzaOmSC-106" value="" style="endArrow=open;html=1;edgeStyle=orthogonalEdgeStyle;rounded=0;endFill=0;startSize=6;endSize=2;strokeColor=#FFFFFF;fontFamily=Helvetica;" edge="1" parent="Shn82EJDHSnE-vzaOmSC-101">
          <mxGeometry width="50" height="50" relative="1" as="geometry">
            <mxPoint x="27" y="19" as="sourcePoint" />
            <mxPoint x="18" y="27" as="targetPoint" />
            <Array as="points">
              <mxPoint x="18" y="19" />
            </Array>
          </mxGeometry>
        </mxCell>
        <mxCell id="Shn82EJDHSnE-vzaOmSC-107" style="rounded=0;orthogonalLoop=1;jettySize=auto;html=1;exitX=0.5;exitY=0;exitDx=0;exitDy=0;entryX=0.5;entryY=1;entryDx=0;entryDy=0;startSize=6;endArrow=none;endFill=0;endSize=2;fontFamily=Helvetica;fontSize=8;strokeColor=#98A2AE;" edge="1" parent="1" source="Shn82EJDHSnE-vzaOmSC-102" target="Shn82EJDHSnE-vzaOmSC-96">
          <mxGeometry relative="1" as="geometry">
            <mxPoint x="555" y="296" as="sourcePoint" />
            <mxPoint x="555" y="268" as="targetPoint" />
          </mxGeometry>
        </mxCell>
        <mxCell id="Shn82EJDHSnE-vzaOmSC-108" value="Arbitrary topologies" style="text;html=1;align=left;verticalAlign=middle;resizable=0;points=[];autosize=1;fontSize=10;fontFamily=Helvetica;rotation=0;fontColor=#001135;fontStyle=1" vertex="1" parent="1">
          <mxGeometry x="559" y="371" width="107" height="17" as="geometry" />
        </mxCell>
        <mxCell id="Shn82EJDHSnE-vzaOmSC-109" value="SR Linux" style="text;html=1;align=left;verticalAlign=middle;resizable=0;points=[];autosize=1;fontSize=10;fontFamily=Helvetica;rotation=0;fontColor=#001135;fontStyle=0" vertex="1" parent="1">
          <mxGeometry x="512" y="328" width="52" height="17" as="geometry" />
        </mxCell>
        <mxCell id="Shn82EJDHSnE-vzaOmSC-110" value="SR Linux" style="text;html=1;align=left;verticalAlign=middle;resizable=0;points=[];autosize=1;fontSize=10;fontFamily=Helvetica;rotation=0;fontColor=#001135;fontStyle=0" vertex="1" parent="1">
          <mxGeometry x="513" y="223" width="52" height="17" as="geometry" />
        </mxCell>
        <mxCell id="Shn82EJDHSnE-vzaOmSC-111" value="SR Linux" style="text;html=1;align=left;verticalAlign=middle;resizable=0;points=[];autosize=1;fontSize=10;fontFamily=Helvetica;rotation=0;fontColor=#001135;fontStyle=0" vertex="1" parent="1">
          <mxGeometry x="611" y="222.5" width="52" height="17" as="geometry" />
        </mxCell>
        <mxCell id="Shn82EJDHSnE-vzaOmSC-112" value="Arista cEOS" style="text;html=1;align=left;verticalAlign=middle;resizable=0;points=[];autosize=1;fontSize=10;fontFamily=Helvetica;rotation=0;fontColor=#001135;fontStyle=0" vertex="1" parent="1">
          <mxGeometry x="604" y="328" width="65" height="17" as="geometry" />
        </mxCell>
        <mxCell id="Shn82EJDHSnE-vzaOmSC-113" value="SR Linux" style="text;html=1;align=left;verticalAlign=middle;resizable=0;points=[];autosize=1;fontSize=10;fontFamily=Helvetica;rotation=0;fontColor=#001135;fontStyle=0" vertex="1" parent="1">
          <mxGeometry x="670" y="281" width="52" height="17" as="geometry" />
        </mxCell>
        <mxCell id="Shn82EJDHSnE-vzaOmSC-114" value="" style="whiteSpace=wrap;html=1;aspect=fixed;strokeColor=none;connectable=1;allowArrows=1;fillColor=#BEC8D2;fontFamily=Helvetica;" vertex="1" parent="1">
          <mxGeometry x="619" y="298" width="30" height="30" as="geometry" />
        </mxCell>
        <mxCell id="Shn82EJDHSnE-vzaOmSC-115" value="" style="endArrow=open;html=1;edgeStyle=orthogonalEdgeStyle;rounded=0;endFill=0;startSize=6;endSize=2;strokeColor=#FFFFFF;fontFamily=Helvetica;" edge="1" parent="1">
          <mxGeometry width="50" height="50" relative="1" as="geometry">
            <mxPoint x="622" y="310" as="sourcePoint" />
            <mxPoint x="630" y="301" as="targetPoint" />
            <Array as="points">
              <mxPoint x="630" y="310" />
            </Array>
          </mxGeometry>
        </mxCell>
        <mxCell id="Shn82EJDHSnE-vzaOmSC-116" value="" style="endArrow=open;html=1;edgeStyle=orthogonalEdgeStyle;rounded=0;endFill=0;startSize=6;endSize=2;strokeColor=#FFFFFF;fontFamily=Helvetica;" edge="1" parent="1">
          <mxGeometry width="50" height="50" relative="1" as="geometry">
            <mxPoint x="630" y="325" as="sourcePoint" />
            <mxPoint x="622" y="317" as="targetPoint" />
            <Array as="points">
              <mxPoint x="630" y="317" />
            </Array>
          </mxGeometry>
        </mxCell>
        <mxCell id="Shn82EJDHSnE-vzaOmSC-117" value="" style="endArrow=open;html=1;edgeStyle=orthogonalEdgeStyle;rounded=0;endFill=0;startSize=6;endSize=2;strokeColor=#FFFFFF;fontFamily=Helvetica;" edge="1" parent="1">
          <mxGeometry width="50" height="50" relative="1" as="geometry">
            <mxPoint x="637" y="301" as="sourcePoint" />
            <mxPoint x="646" y="310" as="targetPoint" />
            <Array as="points">
              <mxPoint x="637" y="310" />
            </Array>
          </mxGeometry>
        </mxCell>
        <mxCell id="Shn82EJDHSnE-vzaOmSC-118" value="" style="endArrow=open;html=1;edgeStyle=orthogonalEdgeStyle;rounded=0;endFill=0;startSize=6;endSize=2;strokeColor=#FFFFFF;fontFamily=Helvetica;" edge="1" parent="1">
          <mxGeometry width="50" height="50" relative="1" as="geometry">
            <mxPoint x="646" y="317" as="sourcePoint" />
            <mxPoint x="637" y="325" as="targetPoint" />
            <Array as="points">
              <mxPoint x="637" y="317" />
            </Array>
          </mxGeometry>
        </mxCell>
        <mxCell id="Shn82EJDHSnE-vzaOmSC-119" style="rounded=0;orthogonalLoop=1;jettySize=auto;html=1;entryX=0.5;entryY=1;entryDx=0;entryDy=0;startSize=6;endArrow=none;endFill=0;endSize=2;fontFamily=Helvetica;fontSize=8;strokeColor=#98A2AE;dashed=1;" edge="1" parent="1">
          <mxGeometry relative="1" as="geometry">
            <mxPoint x="484" y="392" as="sourcePoint" />
            <mxPoint x="484" y="203" as="targetPoint" />
          </mxGeometry>
        </mxCell>
      </root>
    </mxGraphModel>
  </diagram>
</mxfile>
